<svg width="40" height="40" viewBox="0 0 40 40" fill="none" xmlns="http://www.w3.org/2000/svg">
<path d="M25.1856 4.80872C25.3115 6.45206 24.7918 8.07974 23.7369 9.34608C23.2318 9.97434 22.5907 10.4798 21.8619 10.8244C21.1331 11.1689 20.3356 11.3437 19.5295 11.3354C19.4781 10.5451 19.5829 9.75245 19.838 9.00272C20.0931 8.253 20.4935 7.5609 21.0162 6.96599C22.0853 5.74823 23.574 4.97798 25.1856 4.80872Z" fill="black"/>
<path d="M28.1254 16.7694C27.5898 17.713 27.3016 18.7768 27.2877 19.8618C27.289 21.0822 27.6495 22.2752 28.3243 23.2921C28.9991 24.309 29.9583 25.1047 31.0823 25.5801C30.6404 27.0157 29.9742 28.3724 29.1086 29.6C27.946 31.3391 26.727 33.0381 24.7923 33.0695C23.8722 33.0908 23.2511 32.8262 22.6039 32.5505C21.9288 32.2629 21.2253 31.9632 20.1245 31.9632C18.957 31.9632 18.222 32.2725 17.5132 32.5708C16.9006 32.8287 16.3075 33.0782 15.4717 33.1129C13.6292 33.1812 12.2211 31.2568 11.0162 29.534C8.60811 26.0157 6.73297 19.619 9.24686 15.2665C9.82721 14.2236 10.6678 13.3488 11.6867 12.7274C12.7057 12.106 13.8682 11.7591 15.0611 11.7206C16.1061 11.6991 17.1088 12.1019 17.9879 12.455C18.6603 12.7251 19.2603 12.9661 19.7517 12.9661C20.1836 12.9661 20.7669 12.7346 21.4467 12.4648C22.5175 12.0398 23.8277 11.5198 25.1629 11.6599C26.1862 11.6919 27.1879 11.9621 28.0885 12.449C28.989 12.9358 29.7637 13.626 30.3509 14.4646C29.4266 15.0329 28.661 15.8257 28.1254 16.7694Z" fill="black"/>
</svg>
