<svg width="20" height="20" viewBox="0 0 20 20" fill="none" xmlns="http://www.w3.org/2000/svg">
<path d="M7.82861 3.70603C7.94281 3.47763 8.17625 3.33335 8.43161 3.33335H11.5682C11.8236 3.33335 12.057 3.47763 12.1712 3.70603C12.5677 4.49907 13.3783 5.00002 14.2649 5.00002H16.6666C17.1268 5.00002 17.4999 5.37312 17.4999 5.83335V15.8334C17.4999 16.2936 17.1268 16.6667 16.6666 16.6667H3.33325C2.87301 16.6667 2.49992 16.2936 2.49992 15.8334V5.83335C2.49992 5.37312 2.87301 5.00002 3.33325 5.00002H5.73489C6.62154 5.00002 7.43209 4.49907 7.82861 3.70603ZM8.43161 1.66669C7.54497 1.66669 6.73442 2.16763 6.3379 2.96068C6.22369 3.18908 5.99025 3.33335 5.73489 3.33335H3.33325C1.95254 3.33335 0.833252 4.45264 0.833252 5.83335V15.8334C0.833252 17.2141 1.95254 18.3334 3.33325 18.3334H16.6666C18.0473 18.3334 19.1666 17.2141 19.1666 15.8334V5.83335C19.1666 4.45264 18.0473 3.33335 16.6666 3.33335H14.2649C14.0096 3.33335 13.7761 3.18908 13.6619 2.96068C13.2654 2.16763 12.4549 1.66669 11.5682 1.66669H8.43161ZM8.33325 10.8334C8.33325 9.91288 9.07944 9.16669 9.99992 9.16669C10.9204 9.16669 11.6666 9.91288 11.6666 10.8334C11.6666 11.7538 10.9204 12.5 9.99992 12.5C9.07944 12.5 8.33325 11.7538 8.33325 10.8334ZM9.99992 7.50002C8.15897 7.50002 6.66658 8.9924 6.66658 10.8334C6.66658 12.6743 8.15897 14.1667 9.99992 14.1667C11.8409 14.1667 13.3333 12.6743 13.3333 10.8334C13.3333 8.9924 11.8409 7.50002 9.99992 7.50002Z" fill="white"/>
</svg>
