<svg width="40" height="40" viewBox="0 0 40 40" fill="none" xmlns="http://www.w3.org/2000/svg">
<path fill-rule="evenodd" clip-rule="evenodd" d="M33.6 20.322C33.6 19.3175 33.5098 18.3516 33.3424 17.4243H19.9999V22.9042H27.6242C27.2958 24.6751 26.2977 26.1755 24.7973 27.18V30.7346H29.3757C32.0545 28.2683 33.6 24.6364 33.6 20.322Z" fill="#4285F4"/>
<path fill-rule="evenodd" clip-rule="evenodd" d="M20 34.1667C23.825 34.1667 27.0318 32.8982 29.3757 30.7345L24.7973 27.18C23.5287 28.03 21.906 28.5323 20 28.5323C16.3102 28.5323 13.1871 26.0402 12.073 22.6917H7.34009V26.3622C9.67115 30.9921 14.4621 34.1667 20 34.1667Z" fill="#34A853"/>
<path fill-rule="evenodd" clip-rule="evenodd" d="M12.073 22.6918C11.7897 21.8418 11.6287 20.9338 11.6287 20.0001C11.6287 19.0664 11.7897 18.1584 12.073 17.3084V13.638H7.34007C6.3806 15.5505 5.83325 17.7141 5.83325 20.0001C5.83325 22.2861 6.3806 24.4497 7.34007 26.3622L12.073 22.6918Z" fill="#FBBC05"/>
<path fill-rule="evenodd" clip-rule="evenodd" d="M20 11.4679C22.0799 11.4679 23.9473 12.1827 25.4155 13.5864L29.4788 9.52318C27.0253 7.23719 23.8185 5.8334 20 5.8334C14.4621 5.8334 9.67115 9.00803 7.34009 13.638L12.073 17.3084C13.1871 13.9599 16.3102 11.4679 20 11.4679Z" fill="#EA4335"/>
</svg>
