<svg width="24" height="24" viewBox="0 0 24 24" fill="none" xmlns="http://www.w3.org/2000/svg">
<path d="M23 9.00003C23 7.34317 21.6569 6.00003 20 6.00003H19.5V3.82588C19.5 1.98998 17.8658 0.584709 16.0506 0.859736L3.55058 2.75368C2.08402 2.97588 1 4.23652 1 5.71982V20C1 21.6569 2.34315 23 4 23H20C21.6569 23 23 21.6569 23 20V9.00003ZM17.5 3.82588V6.00003H4C3.64936 6.00003 3.31278 6.06018 3 6.17073V5.71982C3 5.22539 3.36134 4.80518 3.85019 4.73111L16.3502 2.83717C16.9553 2.74549 17.5 3.21392 17.5 3.82588ZM3 9.00003C3 8.44774 3.44772 8.00003 4 8.00003H20C20.5523 8.00003 21 8.44774 21 9.00003V11H17.5C15.567 11 14 12.567 14 14.5C14 16.433 15.567 18 17.5 18H21V20C21 20.5523 20.5523 21 20 21H4C3.44772 21 3 20.5523 3 20V9.00003ZM21 16H17.5C16.6716 16 16 15.3285 16 14.5C16 13.6716 16.6716 13 17.5 13H21V16Z" fill="#737373"/>
</svg>
