<svg width="23" height="22" viewBox="0 0 23 22" fill="none" xmlns="http://www.w3.org/2000/svg">
<path d="M1.62232 7.93602C0.400319 6.02381 1.04476 3.82688 2.46116 2.41048L3.9714 0.900244C5.14297 -0.271328 7.04247 -0.271331 8.21404 0.900243L10.1948 2.88101C11.0766 3.76284 11.2575 5.12647 10.6361 6.20772C10.2669 6.85016 10.3744 7.66037 10.8983 8.18431L14.2509 11.5368C14.7748 12.0608 15.585 12.1683 16.2274 11.7991C17.3087 11.1776 18.6723 11.3585 19.5542 12.2404L21.5349 14.2211C22.7065 15.3927 22.7065 17.2922 21.5349 18.4638L20.0247 19.974C18.6083 21.3904 16.4114 22.0349 14.4992 20.8129C12.9191 19.8031 10.6164 18.0305 7.51052 14.9246C4.40463 11.8188 2.63208 9.51611 1.62232 7.93602ZM3.87538 3.82469C2.92545 4.77462 2.72754 5.95138 3.30759 6.85904C4.22245 8.29064 5.89607 10.4818 8.92474 13.5104C11.9534 16.5391 14.1445 18.2127 15.5761 19.1276C16.4838 19.7076 17.6606 19.5097 18.6105 18.5598L20.1207 17.0496C20.5112 16.659 20.5112 16.0259 20.1207 15.6353L18.14 13.6546C17.8972 13.4118 17.5217 13.362 17.224 13.5331C15.798 14.3526 13.9996 14.114 12.8366 12.9511L9.48412 9.59853C8.32113 8.43554 8.08256 6.63714 8.9021 5.21115C9.07319 4.91345 9.02338 4.53801 8.78059 4.29522L6.79983 2.31446C6.4093 1.92393 5.77614 1.92393 5.38561 2.31446L3.87538 3.82469Z" fill="#737373"/>
</svg>
