<svg width="40" height="40" viewBox="0 0 40 40" fill="none" xmlns="http://www.w3.org/2000/svg">
<path fill-rule="evenodd" clip-rule="evenodd" d="M32.9528 13.4813C32.9641 13.7728 32.9679 14.0641 32.9679 14.3556C32.9679 23.1926 26.7515 33.3944 15.3838 33.3944C11.8919 33.3944 8.64489 32.2815 5.90912 30.3869C6.39271 30.4399 6.88385 30.4797 7.38252 30.4797C10.2778 30.4797 12.9445 29.4063 15.0598 27.6045C12.3554 27.5647 10.0718 25.6172 9.28426 22.9674C9.66234 23.0469 10.0517 23.0867 10.4499 23.0867C11.0114 23.0867 11.5565 23.0073 12.079 22.8484C9.24905 22.2389 7.11749 19.5362 7.11749 16.2902C7.11749 16.2505 7.11749 16.2372 7.11749 16.2107C7.95153 16.7009 8.90615 17.0054 9.91982 17.0452C8.25926 15.8395 7.1677 13.786 7.1677 11.4675C7.1677 10.2486 7.47168 9.09585 8.00677 8.10219C11.0541 12.1563 15.6099 14.8194 20.7461 15.0976C20.6406 14.6074 20.5866 14.0908 20.5866 13.5741C20.5866 9.8777 23.3537 6.88339 26.7678 6.88339C28.5452 6.88339 30.1504 7.69169 31.2772 8.99008C32.6878 8.69861 34.0092 8.14219 35.205 7.37376C34.7415 8.93712 33.763 10.2485 32.4843 11.0699C33.7353 10.9109 34.9287 10.5535 36.0353 10.0235C35.205 11.3617 34.1599 12.5406 32.9528 13.4813Z" fill="#1EA1F2"/>
</svg>
